<?xml version="1.0" encoding="utf-8"?>
<!-- Generator: Adobe Illustrator 24.2.0, SVG Export Plug-In . SVG Version: 6.00 Build 0)  -->
<svg version="1.1" id="레이어_1" xmlns="http://www.w3.org/2000/svg" xmlns:xlink="http://www.w3.org/1999/xlink" x="0px"
	 y="0px" viewBox="0 0 595.28 171" style="enable-background:new 0 0 595.28 171;" xml:space="preserve">
<style type="text/css">
	.st0{fill:#183076;}
	.st1{fill:none;}
	.st2{fill:#E68012;}
	.st3{fill:#040000;}
</style>
<path class="st0" d="M182.32,98.4h-26.49c-3.13,0-5.67-2.54-5.67-5.67c0-3.13,2.54-5.67,5.67-5.67h26.49c3.13,0,5.67,2.54,5.67,5.67
	C187.99,95.87,185.45,98.4,182.32,98.4z"/>
<path class="st0" d="M182.32,143.19h-26.49c-3.13,0-5.67-2.54-5.67-5.67c0-3.13,2.54-5.67,5.67-5.67h26.49
	c3.13,0,5.67,2.54,5.67,5.67C187.99,140.65,185.45,143.19,182.32,143.19z"/>
<path class="st0" d="M195.76,120.8h-39.93c-3.13,0-5.67-2.54-5.67-5.67c0-3.13,2.54-5.67,5.67-5.67h39.93
	c3.13,0,5.67,2.54,5.67,5.67C201.43,118.26,198.89,120.8,195.76,120.8z"/>
<g>
	<path class="st1" d="M78.78,105.4c-11.52,0-20.89,9.37-20.89,20.89v20.89h41.78v-20.89C99.67,114.77,90.3,105.4,78.78,105.4z"/>
	<path class="st0" d="M134,135.78c0,6.29-5.12,11.41-11.41,11.41H110v-20.89c0-17.21-14-31.22-31.22-31.22
		c-17.21,0-31.22,14-31.22,31.22v20.89h-12.6c-6.29,0-11.41-5.12-11.41-11.41v-70.4c0-3.73,1.83-7.24,4.9-9.37l41.47-28.84
		c1.96-1.36,4.23-2.05,6.51-2.05c2.12,0,4.24,0.59,6.12,1.78l29.51,18.73l7.48-7.48L88.09,18.19c-7.41-4.7-16.85-4.5-24.05,0.51
		L22.56,47.53c-5.84,4.06-9.33,10.73-9.33,17.85v70.4c0,11.98,9.75,21.74,21.73,21.74h17.76h52.11h17.76
		c11.98,0,21.74-9.75,21.74-21.74V65.83c0-1.93-0.26-3.82-0.74-5.63L134,69.78V135.78z M99.67,147.19H57.89v-20.89
		c0-11.52,9.37-20.89,20.89-20.89c11.52,0,20.89,9.37,20.89,20.89V147.19z"/>
	<path class="st2" d="M166.06,25.54l-10.85-10.85c-1.1-1.1-3.06-1.1-4.17,0l-26.58,26.58l-7.48,7.48l-10.54,10.54l-2,2l-2-2
		L85.37,42.25c-0.81-0.81-1.88-1.22-2.95-1.22s-2.13,0.41-2.95,1.22l-9.13,9.13c-0.78,0.78-1.21,1.83-1.21,2.95
		c0,1.12,0.43,2.16,1.21,2.95l18.37,18.37l12.6,12.6c1.1,1.1,2.79,1.49,4.29,0.98l0.33-0.09c0.57-0.12,1.07-0.39,1.47-0.78
		l12.94-12.94l13.09-13.09l7.76-7.76l24.87-24.87c0.55-0.55,0.86-1.29,0.86-2.08C166.92,26.83,166.61,26.09,166.06,25.54z"/>
</g>
<g>
	<path class="st0" d="M225.78,112.87h85.19l-1.67,13.62h-35.11l-2.9,23.6h-14.97l2.9-23.6h-35.11L225.78,112.87z M241.4,62.22h66.39
		l-5.04,41.06h-66.39L241.4,62.22z M252.9,90.42h36.46l1.88-15.35h-36.46L252.9,90.42z"/>
	<path class="st0" d="M359.84,61.83h14.39l-5.37,43.75h-47.78l5.37-43.75h14.29l-1.2,9.79h19.09L359.84,61.83z M374.83,111.63
		c4.22,0,7.92,0.77,11.09,2.3c3.17,1.53,5.53,3.76,7.1,6.67c1.56,2.91,2.1,6.35,1.61,10.31c-0.48,3.9-1.85,7.29-4.13,10.17
		c-2.27,2.88-5.18,5.09-8.73,6.62c-3.55,1.54-7.43,2.3-11.65,2.3h-21.3c-4.22,0-7.92-0.77-11.09-2.3c-3.17-1.53-5.54-3.74-7.1-6.62
		c-1.57-2.88-2.11-6.27-1.63-10.17c0.49-3.96,1.87-7.4,4.15-10.31c2.28-2.91,5.19-5.13,8.73-6.67c3.55-1.54,7.43-2.3,11.65-2.3
		H374.83z M337.96,84.48l-1,8.15h19.09l1-8.15H337.96z M369.64,136.67c3.01,0,5.37-0.51,7.1-1.54c1.72-1.02,2.7-2.46,2.93-4.32
		c0.24-1.92-0.37-3.39-1.81-4.41c-1.44-1.02-3.7-1.54-6.77-1.54h-17.17c-3.01,0-5.36,0.51-7.05,1.54c-1.69,1.02-2.66,2.49-2.89,4.41
		c-0.23,1.86,0.38,3.29,1.82,4.32c1.44,1.02,3.66,1.54,6.67,1.54H369.64z M387.53,58.96h14.97l-6.07,49.41h-14.97L387.53,58.96z"/>
	<path class="st2" d="M439.51,84.96c-0.74,5.5-1.98,10.94-3.73,16.31l15.17,26.48l-12.48,8.63l-10.25-18.13
		c-3.67,6.46-8.38,12.79-14.13,19l-9.87-8.73c6.38-7.16,11.2-14.26,14.46-21.3c3.26-7.04,5.44-14.45,6.52-22.26h-12.57l1.67-13.62
		h12.76l1.51-12.28h14.29l-1.51,12.28h13.62l-1.67,13.62H439.51z M445.95,91.1h11.23l3.78-30.8h14.01l-10.61,86.44h-14.01
		l5.16-42.02h-11.23L445.95,91.1z M469.73,149.04l11.06-90.09h14.49l-11.06,90.09H469.73z"/>
	<path class="st2" d="M494.9,143.29l1.67-13.62h85.19l-1.67,13.62H494.9z M517.1,91.38c5.82,0,13.1-0.19,21.85-0.58
		c8.74-0.38,16.35-0.86,22.82-1.44c0.89-4.67,1.49-8.25,1.8-10.75h-51.81L513.43,65h66.87l-1.05,8.54
		c-0.89,7.23-2.25,15.21-4.09,23.94c-1.84,8.73-3.92,17.06-6.23,24.99l-14.49-2.3c1.92-6.78,3.39-12.54,4.42-17.27
		c-6.59,0.58-14.17,1.02-22.71,1.34c-8.55,0.32-16.02,0.48-22.41,0.48h-4.89l0.87-13.34H517.1z"/>
</g>
<g>
	<path class="st3" d="M256.58,33.08c-2.18,0.3-4.57,0.53-7.18,0.7c-2.61,0.17-5.03,0.26-7.25,0.26h-4.58l-0.19-3.17h5.15
		c0.96,0,1.71-0.01,2.24-0.03V29.2c-1.71-0.19-3.06-0.63-4.06-1.31c-1-0.68-1.5-1.61-1.5-2.78v-0.29c0-1.41,0.69-2.46,2.06-3.17
		c1.38-0.7,3.17-1.06,5.39-1.06c2.22,0,4.02,0.35,5.39,1.06c1.38,0.7,2.06,1.76,2.06,3.17v0.29c0,1.13-0.48,2.04-1.42,2.74
		c-0.95,0.69-2.22,1.14-3.82,1.33v1.47c2.52-0.13,4.97-0.34,7.36-0.64L256.58,33.08z M248.71,16.63h6.62v3.07h-17.41v-3.07h6.62
		v-2.24h4.16V16.63z M258.31,39.06h-16.19v-3.49h20.29v9.34h-4.1V39.06z M243.17,25.04c0,0.41,0.33,0.73,0.99,0.98
		c0.66,0.25,1.49,0.37,2.5,0.37c1,0,1.83-0.12,2.5-0.37c0.66-0.25,0.99-0.57,0.99-0.98v-0.16c0-0.41-0.33-0.73-0.99-0.98
		s-1.49-0.37-2.5-0.37c-1,0-1.84,0.12-2.5,0.37c-0.66,0.25-0.99,0.57-0.99,0.98V25.04z M262.41,23.31h4v3.74h-4v6.88h-4.1V14.71h4.1
		V23.31z"/>
	<path class="st3" d="M273.22,31.43c-1.24-0.61-2.22-1.53-2.94-2.75c-0.73-1.23-1.09-2.75-1.09-4.56v-0.48
		c0-1.81,0.36-3.34,1.09-4.59c0.73-1.25,1.71-2.18,2.94-2.78c1.24-0.61,2.65-0.91,4.22-0.91c1.56,0,2.95,0.3,4.19,0.91
		c1.24,0.61,2.21,1.53,2.93,2.77c0.71,1.24,1.07,2.77,1.07,4.61v0.48c0,1.81-0.36,3.33-1.07,4.56c-0.71,1.23-1.69,2.14-2.93,2.75
		c-1.24,0.61-2.63,0.91-4.19,0.91C275.87,32.34,274.46,32.04,273.22,31.43z M280.41,27.56c0.78-0.8,1.17-1.96,1.17-3.47v-0.45
		c0-1.54-0.39-2.7-1.17-3.5c-0.78-0.8-1.77-1.2-2.96-1.2c-1.22,0-2.21,0.4-2.99,1.2c-0.78,0.8-1.17,1.97-1.17,3.5v0.45
		c0,1.54,0.39,2.7,1.17,3.49c0.78,0.79,1.78,1.18,2.99,1.18C278.64,28.75,279.63,28.35,280.41,27.56z M295.24,44.6h-21.41V34.8h4.1
		v6.08h17.31V44.6z M294.12,36.82h-4.1V14.71h4.1V36.82z"/>
	<path class="st3" d="M305.25,14.74h4.13v4.06h6.72v3.65h-17.57V18.8h6.72V14.74z M311.16,25.6c1.14,0.59,2.04,1.42,2.69,2.5
		c0.65,1.08,0.98,2.32,0.98,3.73v1.76c0,1.41-0.33,2.65-0.98,3.73c-0.65,1.08-1.55,1.92-2.69,2.51c-1.14,0.6-2.42,0.9-3.82,0.9
		c-1.39,0-2.66-0.3-3.81-0.9c-1.15-0.6-2.06-1.43-2.72-2.51c-0.66-1.08-0.99-2.32-0.99-3.73v-1.76c0-1.41,0.33-2.65,0.99-3.73
		c0.66-1.08,1.56-1.91,2.7-2.5c1.14-0.59,2.42-0.88,3.82-0.88C308.74,24.72,310.02,25.02,311.16,25.6z M310.76,31.99
		c0-1.13-0.32-2.02-0.96-2.66c-0.64-0.64-1.46-0.96-2.46-0.96c-0.98,0-1.8,0.32-2.45,0.96c-0.65,0.64-0.98,1.53-0.98,2.66v1.44
		c0,1.13,0.33,2.02,0.98,2.67c0.65,0.65,1.47,0.98,2.45,0.98c0.98,0,1.8-0.33,2.45-0.98c0.65-0.65,0.98-1.54,0.98-2.67V31.99z
		 M322.76,25.52h4.35v3.71h-4.35V44.6h-4.06V14.71h4.06V25.52z"/>
	<path class="st3" d="M357.03,33.71h-28.16V30h28.16V33.71z M336.55,23.6h16.99v3.71h-21.09v-12h4.1V23.6z M354.25,44.6h-21.79
		v-8.64h4.1v4.83h17.7V44.6z"/>
	<path class="st3" d="M367.14,33.27h28.16v3.71h-12.03v7.97h-4.1v-7.97h-12.03V33.27z M387.94,15.83h4.1v14.02h-21.6V15.83h4.06
		v3.68h13.44V15.83z M374.5,23.06v3.26h13.44v-3.26H374.5z"/>
	<path class="st3" d="M413.61,25.91v2.3h12.03v3.46h-28.16v-3.46h12.03v-2.3h-8.45V15.28h20.7v3.36h-16.61v3.87h16.93v3.39H413.61z
		 M415.11,33.84c1.56,0,2.91,0.24,4.05,0.72c1.14,0.48,2.02,1.14,2.62,1.97s0.91,1.78,0.91,2.85c0,1.07-0.3,2.02-0.9,2.86
		c-0.6,0.84-1.47,1.5-2.62,1.97c-1.15,0.47-2.51,0.7-4.06,0.7h-7.1c-1.56,0-2.91-0.23-4.05-0.7c-1.14-0.47-2.01-1.13-2.61-1.97
		c-0.6-0.84-0.9-1.8-0.9-2.86c0-1.07,0.3-2.02,0.9-2.85c0.6-0.83,1.47-1.49,2.61-1.97c1.14-0.48,2.49-0.72,4.05-0.72H415.11z
		 M414.37,41.4c1.43,0,2.49-0.18,3.18-0.54c0.69-0.36,1.04-0.86,1.04-1.5c0-1.32-1.41-1.98-4.22-1.98h-5.6
		c-2.84,0-4.26,0.66-4.26,1.98c0,0.64,0.35,1.14,1.04,1.5c0.69,0.36,1.77,0.54,3.22,0.54H414.37z"/>
	<path class="st3" d="M436,26.58c-1.45,2.24-3.62,4.32-6.5,6.24l-2.34-3.14c2.56-1.71,4.41-3.5,5.55-5.39
		c1.14-1.89,1.71-3.95,1.71-6.19v-2.34h4v2.34c0,1.71-0.25,3.35-0.74,4.93l7.87,6.14l-2.34,3.04L436,26.58z M432.39,34.93h4.06v5.95
		h16.99v3.71h-21.06V34.93z M452.04,14.71v7.07h4.32v3.71h-4.32v11.33h-4.1V14.71H452.04z"/>
</g>
</svg>
